<?xml version="1.0" encoding="utf-8"?>
<!-- Generator: Adobe Illustrator 24.2.3, SVG Export Plug-In . SVG Version: 6.00 Build 0)  -->
<svg version="1.1" id="Layer_1" xmlns="http://www.w3.org/2000/svg" xmlns:xlink="http://www.w3.org/1999/xlink" x="0px" y="0px"
	 viewBox="0 0 90 23" style="enable-background:new 0 0 90 23;" xml:space="preserve">
<style type="text/css">
	.st0{fill:#FFFFFF;}
	.st1{stroke:#FFFFFF;stroke-width:0.5;stroke-miterlimit:10;}
</style>
<g>
	<g>
		<path class="st0" d="M52.2,4.7c-0.2-1.2-1.4-1.1-3.4-1.3c-2-0.2-4.7-1-9.1-0.8c-4.4,0.1-9.1,1.6-13,1.6c-3.9,0-8.6-1.5-13-1.6
			C9.2,2.4,6.5,3.1,4.5,3.3c-2,0.2-3.1,0.1-3.4,1.3C0.9,5.8,0.9,7.9,1.6,8.1c0.7,0.2,0.7,0.2,0.7,0.2s0.6,6.7,2.5,9.3
			c1.9,2.7,4.5,2.7,8.5,2.9c4,0.2,7.2-1.4,8.6-4.9c1.4-3.5,2.2-7.6,4.7-7.6c2.5,0,3.3,4.1,4.7,7.6c1.4,3.5,4.6,5.1,8.6,4.9
			c4-0.2,6.6-0.2,8.5-2.9C50.4,15,51,8.4,51,8.4s0,0,0.7-0.2C52.5,7.9,52.5,5.8,52.2,4.7z M2.9,6.6c-0.3,0-0.3-0.2-0.3-0.8
			c0-0.5,0.2-0.7,0.7-0.6C3.3,5.2,3.2,6.6,2.9,6.6z M20.6,14.5c-2.3,4.2-4.3,4.8-9.1,4.9c-4.8,0.1-6.4-3.4-7.3-7.8
			C3.3,7.1,4.9,5,7.4,4.4c5.9-1.4,11.8,0.2,13.1,1C21.9,6.2,22.9,10.3,20.6,14.5z M49.1,11.5c-0.9,4.4-2.5,7.9-7.3,7.8
			c-4.8-0.1-6.8-0.7-9.1-4.9c-2.3-4.2-1.4-8.3,0-9.1c1.4-0.8,7.3-2.5,13.1-1C48.5,5,50.1,7.1,49.1,11.5z M50.4,6.6
			c-0.3,0-0.3-1.4-0.3-1.4c0.4,0,0.7,0.1,0.7,0.6C50.7,6.4,50.7,6.6,50.4,6.6z"/>
	</g>
</g>
<g>
	<polygon class="st0" points="86.5,1 55.1,1 58.3,11.5 55.1,22 86.5,22 89.7,11.5 	"/>
</g>
<polygon class="st1" points="55.1,1 58.3,11.5 89.7,11.5 86.5,1 "/>
<g>
	<g>
		<path class="st0" d="M64.2,8.8c-0.2,0.1-0.7,0.3-1.4,0.3c-0.7,0-1.4-0.2-2-0.6c-0.5-0.4-1-1-1.2-1.8c-0.4-1.4,0.2-2.5,1.8-2.5
			c0.6,0,1,0.1,1.3,0.2l0,0.5c-0.3-0.1-0.6-0.2-1.1-0.2c-1.2,0-1.7,0.7-1.3,1.9c0.4,1.2,1.3,1.9,2.4,1.9c0.4,0,0.7-0.1,0.8-0.1
			L63.1,7h-1L62,6.5h1.6L64.2,8.8z"/>
		<path class="st0" d="M65.2,4.2h0.6l1.3,4.3h2L69.3,9h-2.7L65.2,4.2z"/>
		<path class="st0" d="M73.2,6.8h-1.9l0.5,1.7H74L74.1,9h-2.7L70,4.2h2.6l0.2,0.5h-2l0.5,1.5h1.9L73.2,6.8z"/>
		<path class="st0" d="M76.4,9l-1.5-4.8h0.7l2.3,2.4c0.5,0.6,1,1.1,1.3,1.6l0,0c-0.3-0.6-0.4-1.2-0.7-2l-0.6-2h0.6L80,9h-0.6
			l-2.3-2.4c-0.5-0.5-1-1.1-1.4-1.6l0,0c0.2,0.6,0.4,1.2,0.7,2L77,9H76.4z"/>
		<path class="st0" d="M82.5,9L81,4.2h0.7L84,6.6c0.5,0.6,1,1.1,1.3,1.6l0,0c-0.3-0.6-0.4-1.2-0.7-2l-0.6-2h0.6L86.1,9h-0.6
			l-2.3-2.4c-0.5-0.5-1-1.1-1.4-1.6l0,0c0.2,0.6,0.4,1.2,0.7,2l0.6,2H82.5z"/>
	</g>
</g>
<g>
	<g>
		<path d="M63,16.8h-1.9l-0.5,1.7h2.1l-0.2,0.5h-2.7l1.5-4.8h2.6l-0.2,0.5h-2l-0.5,1.5h1.9L63,16.8z"/>
		<path d="M65.8,19.1l-0.1-4.8h0.7l0,2.4c0,0.6,0,1.2,0,1.8h0c0.3-0.6,0.7-1.2,1.1-1.8l1.5-2.4h0.7l-3.2,4.8H65.8z"/>
		<path d="M71,17.6l-1,1.5h-0.6l3.1-4.8h0.7l0.2,4.8h-0.7l0-1.5H71z M72.7,17.1l0-1.4c0-0.3,0-0.6,0-0.9h0c-0.2,0.3-0.3,0.6-0.5,0.9
			l-0.9,1.4H72.7z"/>
		<path d="M75.5,19.1l1.5-4.8h0.7l0.8,2.4c0.2,0.6,0.3,1.1,0.4,1.6l0,0c0.1-0.6,0.3-1.2,0.5-2l0.6-2h0.6l-1.5,4.8h-0.6l-0.8-2.4
			c-0.2-0.5-0.3-1.1-0.4-1.6l0,0c-0.2,0.6-0.3,1.2-0.6,2l-0.6,2H75.5z"/>
		<path d="M81.8,18.3c0.2,0.2,0.6,0.3,1,0.3c0.6,0,1.1-0.3,1.3-0.8c0.1-0.4,0-0.7-0.6-1c-0.7-0.3-1.1-0.7-0.8-1.4
			c0.2-0.7,1-1.3,2-1.3c0.5,0,0.8,0.1,1,0.2l-0.3,0.5c-0.1-0.1-0.4-0.2-0.8-0.2c-0.7,0-1,0.4-1.1,0.7c-0.1,0.4,0.1,0.7,0.7,0.9
			c0.7,0.3,1,0.7,0.8,1.4c-0.2,0.7-1,1.4-2.1,1.4c-0.5,0-0.9-0.1-1.1-0.3L81.8,18.3z"/>
	</g>
</g>
</svg>
